<svg width="86" height="81" viewBox="0 0 86 81" fill="none" xmlns="http://www.w3.org/2000/svg">
<path d="M65.1777 27.3036L42.9086 5L20.6394 27.3036L42.9086 49.6073L65.1777 27.3036Z" stroke="#F4BB46" stroke-width="6.53643"/>
<path d="M81.0154 27.0536L65.2743 11.2881L49.5331 27.0536L65.2743 42.8191L81.0154 27.0536Z" stroke="#065ACC" stroke-width="6.53643"/>
<path d="M36.3448 27.0536L20.6036 11.2881L4.86249 27.0536L20.6036 42.8191L36.3448 27.0536Z" stroke="#065ACC" stroke-width="6.53643"/>
<path d="M54.7875 13.0276L50.9247 16.8965L57.6702 23.6524L61.5331 19.7836L54.7875 13.0276Z" fill="#F4BB46"/>
<path d="M26.6457 29.4547L22.786 33.3203L29.5315 40.0763L33.3912 36.2107L26.6457 29.4547Z" fill="#F4BB46"/>
<path d="M14.6951 80.0163V62.1992H21.036C22.4142 62.1992 23.5579 62.437 24.4671 62.9126C25.3821 63.3882 26.0654 64.0465 26.5171 64.8874C26.9688 65.7226 27.1946 66.6883 27.1946 67.7844C27.1946 68.8748 26.9658 69.8347 26.5084 70.6641C26.0567 71.4876 25.3734 72.1285 24.4584 72.5867C23.5493 73.0449 22.4056 73.274 21.0274 73.274H16.2239V70.9598H20.7842C21.6528 70.9598 22.3593 70.8352 22.9036 70.5858C23.4537 70.3364 23.8562 69.9739 24.111 69.4983C24.3658 69.0227 24.4932 68.4515 24.4932 67.7844C24.4932 67.1116 24.3629 66.5288 24.1023 66.0358C23.8475 65.5428 23.4451 65.1658 22.8949 64.9048C22.3506 64.638 21.6354 64.5047 20.7494 64.5047H17.3791V80.0163H14.6951ZM23.4769 71.9777L27.8721 80.0163H24.8145L20.5062 71.9777H23.4769ZM33.8785 62.1992V80.0163H31.1945V62.1992H33.8785ZM38.5211 62.1992H41.7785L47.4419 76.0491H47.6504L53.3138 62.1992H56.5712V80.0163H54.0174V67.1232H53.8524L48.6059 79.9901H46.4865L41.2399 67.1146H41.0749V80.0163H38.5211V62.1992ZM61.2073 80.0163V62.1992H63.8913V77.7021H71.9522V80.0163H61.2073Z" fill="#065ACC"/>
</svg>