<svg width="183" height="58" viewBox="0 0 183 58" fill="none" xmlns="http://www.w3.org/2000/svg">
<path d="M65.1779 27.3036L42.9088 5L20.6396 27.3036L42.9088 49.6073L65.1779 27.3036Z" stroke="#F4BB46" stroke-width="6.53643"/>
<path d="M81.0155 27.0546L65.2744 11.2891L49.5332 27.0546L65.2744 42.8201L81.0155 27.0546Z" stroke="#065ACC" stroke-width="6.53643"/>
<path d="M36.3446 27.0546L20.6034 11.2891L4.8623 27.0546L20.6034 42.8201L36.3446 27.0546Z" stroke="#065ACC" stroke-width="6.53643"/>
<path d="M54.7876 13.0273L50.9248 16.8962L57.6703 23.6521L61.5332 19.7833L54.7876 13.0273Z" fill="#F4BB46"/>
<path d="M26.6458 29.4551L22.7861 33.3207L29.5316 40.0767L33.3913 36.2111L26.6458 29.4551Z" fill="#F4BB46"/>
<path d="M99 39.6817V14.3184H108.027C109.988 14.3184 111.617 14.6569 112.911 15.3339C114.213 16.011 115.186 16.9481 115.829 18.1451C116.472 19.3341 116.794 20.7088 116.794 22.2691C116.794 23.8213 116.468 25.1878 115.817 26.3685C115.174 27.5408 114.201 28.4531 112.898 29.1054C111.604 29.7577 109.976 30.0838 108.014 30.0838H101.176V26.7894H107.668C108.905 26.7894 109.91 26.6121 110.685 26.257C111.468 25.902 112.041 25.386 112.404 24.7089C112.767 24.0319 112.948 23.2188 112.948 22.2691C112.948 21.3114 112.763 20.4817 112.392 19.7799C112.029 19.0781 111.456 18.5414 110.673 18.1699C109.898 17.7901 108.88 17.6003 107.619 17.6003H102.821V39.6817H99ZM111.501 28.2385L117.758 39.6817H113.405L107.272 28.2385H111.501ZM126.308 14.3184V39.6817H122.488V14.3184H126.308ZM132.917 14.3184H137.554L145.616 34.0343H145.913L153.975 14.3184H158.612V39.6817H154.977V21.3279H154.742L147.273 39.6444H144.256L136.788 21.3156H136.553V39.6817H132.917V14.3184ZM165.212 39.6817V14.3184H169.033V36.3874H180.508V39.6817H165.212Z" fill="#065ACC"/>
</svg>
